<svg xmlns="http://www.w3.org/2000/svg" viewBox="0 0 480 300" width="480" height="300" role="img" aria-label="Pixel-art screen animating between the Android and Apple logos">
  <defs>
    <clipPath id="screenClip">
      <rect x="60" y="40" width="360" height="200"/>
    </clipPath>
  </defs>

  <!-- ===== stand ===== -->
  <rect x="220" y="260" width="40" height="14" fill="#1a1a24"/>
  <rect x="190" y="274" width="100" height="12" fill="#1a1a24"/>
  <rect x="180" y="286" width="120" height="8" fill="#111119"/>

  <!-- ===== monitor bezel (blocky pixel corners) ===== -->
  <rect x="40" y="20" width="400" height="240" fill="#2b2b3a"/>
  <rect x="40" y="20" width="10" height="10" fill="#0d1117"/>
  <rect x="430" y="20" width="10" height="10" fill="#0d1117"/>
  <rect x="40" y="250" width="10" height="10" fill="#0d1117"/>
  <rect x="430" y="250" width="10" height="10" fill="#0d1117"/>
  <rect x="42" y="22" width="396" height="4" fill="#4a4a63"/>
  <rect x="42" y="22" width="4" height="236" fill="#4a4a63"/>

  <!-- webcam dot -->
  <rect x="235" y="26" width="10" height="6" fill="#141420"/>

  <!-- vents -->
  <rect x="60" y="248" width="6" height="4" fill="#1a1a24"/>
  <rect x="72" y="248" width="6" height="4" fill="#1a1a24"/>
  <rect x="84" y="248" width="6" height="4" fill="#1a1a24"/>

  <!-- power LED -->
  <rect x="404" y="248" width="8" height="8" fill="#3ddc84">
    <animate attributeName="opacity" values="1;0.15;1" dur="1.6s" repeatCount="indefinite"/>
  </rect>

  <!-- ===== screen ===== -->
  <rect x="60" y="40" width="360" height="200" fill="#0d1117"/>

  <g clip-path="url(#screenClip)">

    <!-- soft screen glow -->
    <rect x="60" y="40" width="360" height="200" fill="#3ddc84" opacity="0.05"/>

    <!-- ===== ANDROID ICON ===== -->
    <g id="androidGroup" transform="translate(180,55)" opacity="1">
      <animate attributeName="opacity" values="1;1;0;0;1" keyTimes="0;0.42;0.5;0.92;1" dur="7s" repeatCount="indefinite"/>
      <animateTransform attributeName="transform" type="translate" additive="sum" values="0,0; 0,-5; 0,0" dur="2.6s" repeatCount="indefinite"/>
      <rect x="10" y="0" width="10" height="10" fill="#3ddc84"/>
      <rect x="100" y="0" width="10" height="10" fill="#3ddc84"/>
      <rect x="20" y="10" width="10" height="10" fill="#3ddc84"/>
      <rect x="90" y="10" width="10" height="10" fill="#3ddc84"/>
      <rect x="40" y="30" width="10" height="10" fill="#3ddc84"/>
      <rect x="50" y="30" width="10" height="10" fill="#3ddc84"/>
      <rect x="60" y="30" width="10" height="10" fill="#3ddc84"/>
      <rect x="70" y="30" width="10" height="10" fill="#3ddc84"/>
      <rect x="30" y="40" width="10" height="10" fill="#3ddc84"/>
      <rect x="40" y="40" width="10" height="10" fill="#3ddc84"/>
      <rect x="50" y="40" width="10" height="10" fill="#3ddc84"/>
      <rect x="60" y="40" width="10" height="10" fill="#3ddc84"/>
      <rect x="70" y="40" width="10" height="10" fill="#3ddc84"/>
      <rect x="80" y="40" width="10" height="10" fill="#3ddc84"/>
      <rect x="20" y="50" width="10" height="10" fill="#3ddc84"/>
      <rect x="30" y="50" width="10" height="10" fill="#3ddc84"/>
      <rect x="40" y="50" width="10" height="10" fill="#3ddc84"/>
      <rect x="50" y="50" width="10" height="10" fill="#3ddc84"/>
      <rect x="60" y="50" width="10" height="10" fill="#3ddc84"/>
      <rect x="70" y="50" width="10" height="10" fill="#3ddc84"/>
      <rect x="80" y="50" width="10" height="10" fill="#3ddc84"/>
      <rect x="90" y="50" width="10" height="10" fill="#3ddc84"/>
      <rect x="10" y="60" width="10" height="10" fill="#3ddc84"/>
      <rect x="20" y="60" width="10" height="10" fill="#3ddc84"/>
      <rect x="40" y="60" width="10" height="10" fill="#3ddc84"/>
      <rect x="50" y="60" width="10" height="10" fill="#3ddc84"/>
      <rect x="60" y="60" width="10" height="10" fill="#3ddc84"/>
      <rect x="70" y="60" width="10" height="10" fill="#3ddc84"/>
      <rect x="90" y="60" width="10" height="10" fill="#3ddc84"/>
      <rect x="100" y="60" width="10" height="10" fill="#3ddc84"/>
      <rect x="10" y="70" width="10" height="10" fill="#3ddc84"/>
      <rect x="20" y="70" width="10" height="10" fill="#3ddc84"/>
      <rect x="30" y="70" width="10" height="10" fill="#3ddc84"/>
      <rect x="40" y="70" width="10" height="10" fill="#3ddc84"/>
      <rect x="50" y="70" width="10" height="10" fill="#3ddc84"/>
      <rect x="60" y="70" width="10" height="10" fill="#3ddc84"/>
      <rect x="70" y="70" width="10" height="10" fill="#3ddc84"/>
      <rect x="80" y="70" width="10" height="10" fill="#3ddc84"/>
      <rect x="90" y="70" width="10" height="10" fill="#3ddc84"/>
      <rect x="100" y="70" width="10" height="10" fill="#3ddc84"/>
      <rect x="0" y="80" width="10" height="10" fill="#3ddc84"/>
      <rect x="10" y="80" width="10" height="10" fill="#3ddc84"/>
      <rect x="20" y="80" width="10" height="10" fill="#3ddc84"/>
      <rect x="30" y="80" width="10" height="10" fill="#3ddc84"/>
      <rect x="40" y="80" width="10" height="10" fill="#3ddc84"/>
      <rect x="50" y="80" width="10" height="10" fill="#3ddc84"/>
      <rect x="60" y="80" width="10" height="10" fill="#3ddc84"/>
      <rect x="70" y="80" width="10" height="10" fill="#3ddc84"/>
      <rect x="80" y="80" width="10" height="10" fill="#3ddc84"/>
      <rect x="90" y="80" width="10" height="10" fill="#3ddc84"/>
      <rect x="100" y="80" width="10" height="10" fill="#3ddc84"/>
      <rect x="110" y="80" width="10" height="10" fill="#3ddc84"/>
      <rect x="0" y="90" width="10" height="10" fill="#3ddc84"/>
      <rect x="10" y="90" width="10" height="10" fill="#3ddc84"/>
      <rect x="20" y="90" width="10" height="10" fill="#3ddc84"/>
      <rect x="30" y="90" width="10" height="10" fill="#3ddc84"/>
      <rect x="40" y="90" width="10" height="10" fill="#3ddc84"/>
      <rect x="50" y="90" width="10" height="10" fill="#3ddc84"/>
      <rect x="60" y="90" width="10" height="10" fill="#3ddc84"/>
      <rect x="70" y="90" width="10" height="10" fill="#3ddc84"/>
      <rect x="80" y="90" width="10" height="10" fill="#3ddc84"/>
      <rect x="90" y="90" width="10" height="10" fill="#3ddc84"/>
      <rect x="100" y="90" width="10" height="10" fill="#3ddc84"/>
      <rect x="110" y="90" width="10" height="10" fill="#3ddc84"/>
      <rect x="10" y="100" width="10" height="10" fill="#3ddc84"/>
      <rect x="20" y="100" width="10" height="10" fill="#3ddc84"/>
      <rect x="30" y="100" width="10" height="10" fill="#3ddc84"/>
      <rect x="40" y="100" width="10" height="10" fill="#3ddc84"/>
      <rect x="50" y="100" width="10" height="10" fill="#3ddc84"/>
      <rect x="60" y="100" width="10" height="10" fill="#3ddc84"/>
      <rect x="70" y="100" width="10" height="10" fill="#3ddc84"/>
      <rect x="80" y="100" width="10" height="10" fill="#3ddc84"/>
      <rect x="90" y="100" width="10" height="10" fill="#3ddc84"/>
      <rect x="100" y="100" width="10" height="10" fill="#3ddc84"/>
      <rect x="10" y="110" width="10" height="10" fill="#3ddc84"/>
      <rect x="20" y="110" width="10" height="10" fill="#3ddc84"/>
      <rect x="30" y="110" width="10" height="10" fill="#3ddc84"/>
      <rect x="40" y="110" width="10" height="10" fill="#3ddc84"/>
      <rect x="50" y="110" width="10" height="10" fill="#3ddc84"/>
      <rect x="60" y="110" width="10" height="10" fill="#3ddc84"/>
      <rect x="70" y="110" width="10" height="10" fill="#3ddc84"/>
      <rect x="80" y="110" width="10" height="10" fill="#3ddc84"/>
      <rect x="90" y="110" width="10" height="10" fill="#3ddc84"/>
      <rect x="100" y="110" width="10" height="10" fill="#3ddc84"/>
      <rect x="20" y="120" width="10" height="10" fill="#3ddc84"/>
      <rect x="30" y="120" width="10" height="10" fill="#3ddc84"/>
      <rect x="80" y="120" width="10" height="10" fill="#3ddc84"/>
      <rect x="90" y="120" width="10" height="10" fill="#3ddc84"/>
      <rect x="20" y="130" width="10" height="10" fill="#3ddc84"/>
      <rect x="30" y="130" width="10" height="10" fill="#3ddc84"/>
      <rect x="80" y="130" width="10" height="10" fill="#3ddc84"/>
      <rect x="90" y="130" width="10" height="10" fill="#3ddc84"/>
      <!-- eyes -->
      <rect x="30" y="60" width="10" height="10" fill="#0d1117"/>
      <rect x="80" y="60" width="10" height="10" fill="#0d1117"/>
    </g>

    <text id="androidLabel" x="240" y="222" text-anchor="middle" font-family="monospace" font-size="18" fill="#3ddc84" letter-spacing="4" opacity="1">ANDROID
      <animate attributeName="opacity" values="1;1;0;0;1" keyTimes="0;0.42;0.5;0.92;1" dur="7s" repeatCount="indefinite"/>
    </text>

    <!-- ===== APPLE ICON ===== -->
    <g id="appleGroup" transform="translate(180,55)" opacity="0">
      <animate attributeName="opacity" values="0;0;1;1;0" keyTimes="0;0.42;0.5;0.92;1" dur="7s" repeatCount="indefinite"/>
      <animateTransform attributeName="transform" type="translate" additive="sum" values="0,0; 0,-5; 0,0" dur="2.6s" repeatCount="indefinite"/>
      <rect x="30" y="20" width="10" height="10" fill="#f5f5f7"/>
      <rect x="40" y="20" width="10" height="10" fill="#f5f5f7"/>
      <rect x="50" y="20" width="10" height="10" fill="#f5f5f7"/>
      <rect x="60" y="20" width="10" height="10" fill="#f5f5f7"/>
      <rect x="70" y="20" width="10" height="10" fill="#f5f5f7"/>
      <rect x="80" y="20" width="10" height="10" fill="#f5f5f7"/>
      <rect x="20" y="30" width="10" height="10" fill="#f5f5f7"/>
      <rect x="30" y="30" width="10" height="10" fill="#f5f5f7"/>
      <rect x="40" y="30" width="10" height="10" fill="#f5f5f7"/>
      <rect x="50" y="30" width="10" height="10" fill="#f5f5f7"/>
      <rect x="60" y="30" width="10" height="10" fill="#f5f5f7"/>
      <rect x="70" y="30" width="10" height="10" fill="#f5f5f7"/>
      <rect x="80" y="30" width="10" height="10" fill="#f5f5f7"/>
      <rect x="10" y="40" width="10" height="10" fill="#f5f5f7"/>
      <rect x="20" y="40" width="10" height="10" fill="#f5f5f7"/>
      <rect x="30" y="40" width="10" height="10" fill="#f5f5f7"/>
      <rect x="40" y="40" width="10" height="10" fill="#f5f5f7"/>
      <rect x="50" y="40" width="10" height="10" fill="#f5f5f7"/>
      <rect x="60" y="40" width="10" height="10" fill="#f5f5f7"/>
      <rect x="70" y="40" width="10" height="10" fill="#f5f5f7"/>
      <rect x="10" y="50" width="10" height="10" fill="#f5f5f7"/>
      <rect x="20" y="50" width="10" height="10" fill="#f5f5f7"/>
      <rect x="30" y="50" width="10" height="10" fill="#f5f5f7"/>
      <rect x="40" y="50" width="10" height="10" fill="#f5f5f7"/>
      <rect x="50" y="50" width="10" height="10" fill="#f5f5f7"/>
      <rect x="60" y="50" width="10" height="10" fill="#f5f5f7"/>
      <rect x="70" y="50" width="10" height="10" fill="#f5f5f7"/>
      <rect x="80" y="50" width="10" height="10" fill="#f5f5f7"/>
      <rect x="90" y="50" width="10" height="10" fill="#f5f5f7"/>
      <rect x="0" y="60" width="10" height="10" fill="#f5f5f7"/>
      <rect x="10" y="60" width="10" height="10" fill="#f5f5f7"/>
      <rect x="20" y="60" width="10" height="10" fill="#f5f5f7"/>
      <rect x="30" y="60" width="10" height="10" fill="#f5f5f7"/>
      <rect x="40" y="60" width="10" height="10" fill="#f5f5f7"/>
      <rect x="50" y="60" width="10" height="10" fill="#f5f5f7"/>
      <rect x="60" y="60" width="10" height="10" fill="#f5f5f7"/>
      <rect x="70" y="60" width="10" height="10" fill="#f5f5f7"/>
      <rect x="80" y="60" width="10" height="10" fill="#f5f5f7"/>
      <rect x="90" y="60" width="10" height="10" fill="#f5f5f7"/>
      <rect x="100" y="60" width="10" height="10" fill="#f5f5f7"/>
      <rect x="0" y="70" width="10" height="10" fill="#f5f5f7"/>
      <rect x="10" y="70" width="10" height="10" fill="#f5f5f7"/>
      <rect x="20" y="70" width="10" height="10" fill="#f5f5f7"/>
      <rect x="30" y="70" width="10" height="10" fill="#f5f5f7"/>
      <rect x="40" y="70" width="10" height="10" fill="#f5f5f7"/>
      <rect x="50" y="70" width="10" height="10" fill="#f5f5f7"/>
      <rect x="60" y="70" width="10" height="10" fill="#f5f5f7"/>
      <rect x="70" y="70" width="10" height="10" fill="#f5f5f7"/>
      <rect x="80" y="70" width="10" height="10" fill="#f5f5f7"/>
      <rect x="90" y="70" width="10" height="10" fill="#f5f5f7"/>
      <rect x="100" y="70" width="10" height="10" fill="#f5f5f7"/>
      <rect x="0" y="80" width="10" height="10" fill="#f5f5f7"/>
      <rect x="10" y="80" width="10" height="10" fill="#f5f5f7"/>
      <rect x="20" y="80" width="10" height="10" fill="#f5f5f7"/>
      <rect x="30" y="80" width="10" height="10" fill="#f5f5f7"/>
      <rect x="40" y="80" width="10" height="10" fill="#f5f5f7"/>
      <rect x="50" y="80" width="10" height="10" fill="#f5f5f7"/>
      <rect x="60" y="80" width="10" height="10" fill="#f5f5f7"/>
      <rect x="70" y="80" width="10" height="10" fill="#f5f5f7"/>
      <rect x="80" y="80" width="10" height="10" fill="#f5f5f7"/>
      <rect x="90" y="80" width="10" height="10" fill="#f5f5f7"/>
      <rect x="100" y="80" width="10" height="10" fill="#f5f5f7"/>
      <rect x="10" y="90" width="10" height="10" fill="#f5f5f7"/>
      <rect x="20" y="90" width="10" height="10" fill="#f5f5f7"/>
      <rect x="30" y="90" width="10" height="10" fill="#f5f5f7"/>
      <rect x="40" y="90" width="10" height="10" fill="#f5f5f7"/>
      <rect x="50" y="90" width="10" height="10" fill="#f5f5f7"/>
      <rect x="60" y="90" width="10" height="10" fill="#f5f5f7"/>
      <rect x="70" y="90" width="10" height="10" fill="#f5f5f7"/>
      <rect x="80" y="90" width="10" height="10" fill="#f5f5f7"/>
      <rect x="90" y="90" width="10" height="10" fill="#f5f5f7"/>
      <rect x="20" y="100" width="10" height="10" fill="#f5f5f7"/>
      <rect x="30" y="100" width="10" height="10" fill="#f5f5f7"/>
      <rect x="40" y="100" width="10" height="10" fill="#f5f5f7"/>
      <rect x="50" y="100" width="10" height="10" fill="#f5f5f7"/>
      <rect x="60" y="100" width="10" height="10" fill="#f5f5f7"/>
      <rect x="70" y="100" width="10" height="10" fill="#f5f5f7"/>
      <rect x="80" y="100" width="10" height="10" fill="#f5f5f7"/>
      <rect x="30" y="110" width="10" height="10" fill="#f5f5f7"/>
      <rect x="40" y="110" width="10" height="10" fill="#f5f5f7"/>
      <rect x="50" y="110" width="10" height="10" fill="#f5f5f7"/>
      <rect x="60" y="110" width="10" height="10" fill="#f5f5f7"/>
      <!-- leaf -->
      <rect x="70" y="0" width="10" height="10" fill="#3ddc84"/>
      <rect x="80" y="0" width="10" height="10" fill="#3ddc84"/>
      <!-- stem -->
      <rect x="50" y="10" width="10" height="10" fill="#a9744f"/>
    </g>

    <text id="appleLabel" x="240" y="222" text-anchor="middle" font-family="monospace" font-size="18" fill="#f5f5f7" letter-spacing="8" opacity="0">iOS
      <animate attributeName="opacity" values="0;0;1;1;0" keyTimes="0;0.42;0.5;0.92;1" dur="7s" repeatCount="indefinite"/>
    </text>

    <!-- scanlines -->
    <g opacity="0.25">
      <animateTransform attributeName="transform" type="translate" from="0,0" to="0,20" dur="3s" repeatCount="indefinite"/>
      <rect x="60" y="0" width="360" height="2" fill="#000000"/>
      <rect x="60" y="20" width="360" height="2" fill="#000000"/>
      <rect x="60" y="40" width="360" height="2" fill="#000000"/>
      <rect x="60" y="60" width="360" height="2" fill="#000000"/>
      <rect x="60" y="80" width="360" height="2" fill="#000000"/>
      <rect x="60" y="100" width="360" height="2" fill="#000000"/>
      <rect x="60" y="120" width="360" height="2" fill="#000000"/>
      <rect x="60" y="140" width="360" height="2" fill="#000000"/>
      <rect x="60" y="160" width="360" height="2" fill="#000000"/>
      <rect x="60" y="180" width="360" height="2" fill="#000000"/>
      <rect x="60" y="200" width="360" height="2" fill="#000000"/>
      <rect x="60" y="220" width="360" height="2" fill="#000000"/>
      <rect x="60" y="240" width="360" height="2" fill="#000000"/>
    </g>

    <!-- glass sheen sweep -->
    <g opacity="0.10">
      <animateTransform attributeName="transform" type="translate" values="-260,0; 560,0" dur="5s" repeatCount="indefinite"/>
      <polygon points="0,240 40,240 90,40 50,40" fill="#ffffff"/>
    </g>
  </g>
</svg>
