<svg xmlns="http://www.w3.org/2000/svg" viewBox="0 0 960 280" width="960" height="280" role="img" aria-label="Pixel screen animating between the Android and Apple logos">
  <defs>
    <clipPath id="screenClip">
      <rect x="0" y="0" width="960" height="280" rx="10"/>
    </clipPath>
    <pattern id="pixelGrid" width="10" height="10" patternUnits="userSpaceOnUse">
      <path d="M 10 0 L 0 0 0 10" fill="none" stroke="#ffffff" stroke-width="1" opacity="0.05"/>
    </pattern>
  </defs>

  <!-- ===== flat pixel screen (no frame) ===== -->
  <rect x="0.75" y="0.75" width="958.5" height="278.5" rx="10" fill="#0d1117" stroke="#30363d" stroke-width="1.5"/>

  <g clip-path="url(#screenClip)">
    <rect x="0" y="0" width="960" height="280" fill="url(#pixelGrid)"/>
    <rect x="0" y="0" width="960" height="280" fill="#3ddc84" opacity="0.04"/>

    <!-- ===== ANDROID (official mark, 224x132 @ 56-cell grid) ===== -->
    <g id="androidGroup" transform="translate(368,63)" opacity="1">
      <animate attributeName="opacity" values="1;1;0;0;1" keyTimes="0;0.42;0.5;0.92;1" dur="7s" repeatCount="indefinite"/>
      <animateTransform attributeName="transform" type="translate" additive="sum" values="0,0; 0,-6; 0,0" dur="2.6s" repeatCount="indefinite"/>
      <rect x="36" y="0" width="16" height="4" fill="#3ddc84"/>
      <rect x="176" y="0" width="12" height="4" fill="#3ddc84"/>
      <rect x="32" y="4" width="20" height="4" fill="#3ddc84"/>
      <rect x="172" y="4" width="20" height="4" fill="#3ddc84"/>
      <rect x="32" y="8" width="24" height="4" fill="#3ddc84"/>
      <rect x="168" y="8" width="24" height="4" fill="#3ddc84"/>
      <rect x="32" y="12" width="24" height="4" fill="#3ddc84"/>
      <rect x="168" y="12" width="24" height="4" fill="#3ddc84"/>
      <rect x="36" y="16" width="24" height="4" fill="#3ddc84"/>
      <rect x="164" y="16" width="24" height="4" fill="#3ddc84"/>
      <rect x="36" y="20" width="28" height="4" fill="#3ddc84"/>
      <rect x="160" y="20" width="28" height="4" fill="#3ddc84"/>
      <rect x="40" y="24" width="24" height="4" fill="#3ddc84"/>
      <rect x="160" y="24" width="24" height="4" fill="#3ddc84"/>
      <rect x="44" y="28" width="24" height="4" fill="#3ddc84"/>
      <rect x="104" y="28" width="16" height="4" fill="#3ddc84"/>
      <rect x="156" y="28" width="28" height="4" fill="#3ddc84"/>
      <rect x="44" y="32" width="24" height="4" fill="#3ddc84"/>
      <rect x="80" y="32" width="64" height="4" fill="#3ddc84"/>
      <rect x="156" y="32" width="24" height="4" fill="#3ddc84"/>
      <rect x="48" y="36" width="128" height="4" fill="#3ddc84"/>
      <rect x="48" y="40" width="128" height="4" fill="#3ddc84"/>
      <rect x="52" y="44" width="120" height="4" fill="#3ddc84"/>
      <rect x="48" y="48" width="128" height="4" fill="#3ddc84"/>
      <rect x="44" y="52" width="136" height="4" fill="#3ddc84"/>
      <rect x="36" y="56" width="152" height="4" fill="#3ddc84"/>
      <rect x="32" y="60" width="160" height="4" fill="#3ddc84"/>
      <rect x="28" y="64" width="168" height="4" fill="#3ddc84"/>
      <rect x="28" y="68" width="172" height="4" fill="#3ddc84"/>
      <rect x="24" y="72" width="176" height="4" fill="#3ddc84"/>
      <rect x="20" y="76" width="184" height="4" fill="#3ddc84"/>
      <rect x="16" y="80" width="40" height="4" fill="#3ddc84"/>
      <rect x="68" y="80" width="88" height="4" fill="#3ddc84"/>
      <rect x="168" y="80" width="40" height="4" fill="#3ddc84"/>
      <rect x="16" y="84" width="36" height="4" fill="#3ddc84"/>
      <rect x="72" y="84" width="80" height="4" fill="#3ddc84"/>
      <rect x="172" y="84" width="36" height="4" fill="#3ddc84"/>
      <rect x="12" y="88" width="36" height="4" fill="#3ddc84"/>
      <rect x="72" y="88" width="80" height="4" fill="#3ddc84"/>
      <rect x="176" y="88" width="36" height="4" fill="#3ddc84"/>
      <rect x="12" y="92" width="36" height="4" fill="#3ddc84"/>
      <rect x="72" y="92" width="80" height="4" fill="#3ddc84"/>
      <rect x="176" y="92" width="36" height="4" fill="#3ddc84"/>
      <rect x="8" y="96" width="44" height="4" fill="#3ddc84"/>
      <rect x="68" y="96" width="88" height="4" fill="#3ddc84"/>
      <rect x="172" y="96" width="44" height="4" fill="#3ddc84"/>
      <rect x="8" y="100" width="48" height="4" fill="#3ddc84"/>
      <rect x="60" y="100" width="104" height="4" fill="#3ddc84"/>
      <rect x="168" y="100" width="48" height="4" fill="#3ddc84"/>
      <rect x="4" y="104" width="216" height="4" fill="#3ddc84"/>
      <rect x="4" y="108" width="216" height="4" fill="#3ddc84"/>
      <rect x="4" y="112" width="216" height="4" fill="#3ddc84"/>
      <rect x="0" y="116" width="224" height="4" fill="#3ddc84"/>
      <rect x="0" y="120" width="224" height="4" fill="#3ddc84"/>
      <rect x="0" y="124" width="224" height="4" fill="#3ddc84"/>
      <rect x="0" y="128" width="224" height="4" fill="#3ddc84"/>
      <!-- eyes -->
      <rect x="152" y="84" width="4" height="4" fill="#0d1117"/>
      <rect x="48" y="88" width="4" height="4" fill="#0d1117"/>
      <rect x="172" y="88" width="4" height="4" fill="#0d1117"/>
      <rect x="48" y="92" width="4" height="4" fill="#0d1117"/>
      <rect x="68" y="92" width="4" height="4" fill="#0d1117"/>
      <rect x="152" y="92" width="4" height="4" fill="#0d1117"/>
      <rect x="172" y="92" width="4" height="4" fill="#0d1117"/>
      <rect x="56" y="100" width="4" height="4" fill="#0d1117"/>
      <rect x="164" y="100" width="4" height="4" fill="#0d1117"/>
    </g>

    <text id="androidLabel" x="480" y="268" text-anchor="middle" font-family="'Courier New', monospace" font-weight="bold" font-size="16" fill="#3ddc84" letter-spacing="6" opacity="1">ANDROID
      <animate attributeName="opacity" values="1;1;0;0;1" keyTimes="0;0.42;0.5;0.92;1" dur="7s" repeatCount="indefinite"/>
    </text>

    <!-- ===== APPLE (official mark, single solid color, 184x224 @ 56-cell grid) ===== -->
    <g id="appleGroup" transform="translate(388,17)" opacity="0">
      <animate attributeName="opacity" values="0;0;1;1;0" keyTimes="0;0.42;0.5;0.92;1" dur="7s" repeatCount="indefinite"/>
      <animateTransform attributeName="transform" type="translate" additive="sum" values="0,0; 0,-6; 0,0" dur="2.6s" repeatCount="indefinite"/>
      <rect x="124" y="0" width="12" height="4" fill="#f5f5f7"/>
      <rect x="116" y="4" width="20" height="4" fill="#f5f5f7"/>
      <rect x="112" y="8" width="24" height="4" fill="#f5f5f7"/>
      <rect x="104" y="12" width="32" height="4" fill="#f5f5f7"/>
      <rect x="104" y="16" width="32" height="4" fill="#f5f5f7"/>
      <rect x="100" y="20" width="36" height="4" fill="#f5f5f7"/>
      <rect x="96" y="24" width="36" height="4" fill="#f5f5f7"/>
      <rect x="96" y="28" width="32" height="4" fill="#f5f5f7"/>
      <rect x="92" y="32" width="36" height="4" fill="#f5f5f7"/>
      <rect x="92" y="36" width="32" height="4" fill="#f5f5f7"/>
      <rect x="92" y="40" width="28" height="4" fill="#f5f5f7"/>
      <rect x="92" y="44" width="24" height="4" fill="#f5f5f7"/>
      <rect x="92" y="48" width="16" height="4" fill="#f5f5f7"/>
      <rect x="128" y="52" width="12" height="4" fill="#f5f5f7"/>
      <rect x="36" y="56" width="40" height="4" fill="#f5f5f7"/>
      <rect x="112" y="56" width="44" height="4" fill="#f5f5f7"/>
      <rect x="28" y="60" width="56" height="4" fill="#f5f5f7"/>
      <rect x="100" y="60" width="64" height="4" fill="#f5f5f7"/>
      <rect x="24" y="64" width="144" height="4" fill="#f5f5f7"/>
      <rect x="20" y="68" width="152" height="4" fill="#f5f5f7"/>
      <rect x="16" y="72" width="160" height="4" fill="#f5f5f7"/>
      <rect x="12" y="76" width="164" height="4" fill="#f5f5f7"/>
      <rect x="8" y="80" width="164" height="4" fill="#f5f5f7"/>
      <rect x="8" y="84" width="160" height="4" fill="#f5f5f7"/>
      <rect x="4" y="88" width="160" height="4" fill="#f5f5f7"/>
      <rect x="4" y="92" width="156" height="4" fill="#f5f5f7"/>
      <rect x="4" y="96" width="156" height="4" fill="#f5f5f7"/>
      <rect x="0" y="100" width="156" height="4" fill="#f5f5f7"/>
      <rect x="0" y="104" width="156" height="4" fill="#f5f5f7"/>
      <rect x="0" y="108" width="156" height="4" fill="#f5f5f7"/>
      <rect x="0" y="112" width="156" height="4" fill="#f5f5f7"/>
      <rect x="0" y="116" width="156" height="4" fill="#f5f5f7"/>
      <rect x="0" y="120" width="156" height="4" fill="#f5f5f7"/>
      <rect x="0" y="124" width="156" height="4" fill="#f5f5f7"/>
      <rect x="0" y="128" width="156" height="4" fill="#f5f5f7"/>
      <rect x="0" y="132" width="156" height="4" fill="#f5f5f7"/>
      <rect x="0" y="136" width="160" height="4" fill="#f5f5f7"/>
      <rect x="0" y="140" width="160" height="4" fill="#f5f5f7"/>
      <rect x="4" y="144" width="160" height="4" fill="#f5f5f7"/>
      <rect x="4" y="148" width="160" height="4" fill="#f5f5f7"/>
      <rect x="4" y="152" width="164" height="4" fill="#f5f5f7"/>
      <rect x="4" y="156" width="168" height="4" fill="#f5f5f7"/>
      <rect x="8" y="160" width="172" height="4" fill="#f5f5f7"/>
      <rect x="8" y="164" width="176" height="4" fill="#f5f5f7"/>
      <rect x="8" y="168" width="176" height="4" fill="#f5f5f7"/>
      <rect x="12" y="172" width="168" height="4" fill="#f5f5f7"/>
      <rect x="12" y="176" width="168" height="4" fill="#f5f5f7"/>
      <rect x="16" y="180" width="160" height="4" fill="#f5f5f7"/>
      <rect x="16" y="184" width="160" height="4" fill="#f5f5f7"/>
      <rect x="20" y="188" width="152" height="4" fill="#f5f5f7"/>
      <rect x="24" y="192" width="148" height="4" fill="#f5f5f7"/>
      <rect x="24" y="196" width="144" height="4" fill="#f5f5f7"/>
      <rect x="28" y="200" width="136" height="4" fill="#f5f5f7"/>
      <rect x="32" y="204" width="128" height="4" fill="#f5f5f7"/>
      <rect x="36" y="208" width="124" height="4" fill="#f5f5f7"/>
      <rect x="36" y="212" width="120" height="4" fill="#f5f5f7"/>
      <rect x="44" y="216" width="36" height="4" fill="#f5f5f7"/>
      <rect x="112" y="216" width="40" height="4" fill="#f5f5f7"/>
      <rect x="48" y="220" width="24" height="4" fill="#f5f5f7"/>
      <rect x="120" y="220" width="24" height="4" fill="#f5f5f7"/>
    </g>

    <text id="appleLabel" x="480" y="268" text-anchor="middle" font-family="'Courier New', monospace" font-weight="bold" font-size="16" fill="#f5f5f7" letter-spacing="10" opacity="0">iOS
      <animate attributeName="opacity" values="0;0;1;1;0" keyTimes="0;0.42;0.5;0.92;1" dur="7s" repeatCount="indefinite"/>
    </text>

    <!-- scanlines -->
    <g opacity="0.2">
      <animateTransform attributeName="transform" type="translate" from="0,0" to="0,20" dur="3s" repeatCount="indefinite"/>
      <rect x="0" y="-20" width="960" height="2" fill="#000000"/>
      <rect x="0" y="0" width="960" height="2" fill="#000000"/>
      <rect x="0" y="20" width="960" height="2" fill="#000000"/>
      <rect x="0" y="40" width="960" height="2" fill="#000000"/>
      <rect x="0" y="60" width="960" height="2" fill="#000000"/>
      <rect x="0" y="80" width="960" height="2" fill="#000000"/>
      <rect x="0" y="100" width="960" height="2" fill="#000000"/>
      <rect x="0" y="120" width="960" height="2" fill="#000000"/>
      <rect x="0" y="140" width="960" height="2" fill="#000000"/>
      <rect x="0" y="160" width="960" height="2" fill="#000000"/>
      <rect x="0" y="180" width="960" height="2" fill="#000000"/>
      <rect x="0" y="200" width="960" height="2" fill="#000000"/>
      <rect x="0" y="220" width="960" height="2" fill="#000000"/>
      <rect x="0" y="240" width="960" height="2" fill="#000000"/>
      <rect x="0" y="260" width="960" height="2" fill="#000000"/>
      <rect x="0" y="280" width="960" height="2" fill="#000000"/>
    </g>

    <!-- glass sheen sweep -->
    <g opacity="0.08">
      <animateTransform attributeName="transform" type="translate" values="-320,0; 1280,0" dur="6s" repeatCount="indefinite"/>
      <polygon points="0,280 50,280 120,0 70,0" fill="#ffffff"/>
    </g>
  </g>
</svg>
